#!OML:ASF E:\Style4\Style4.ASF
:FULLY-SPECIFIED
:DEGREES
2622
root 1.10016 16.8334 -1.17774 0.0278202 -19.3704 7.29329
lowerback 16.616 4.32773 -1.33123
upperback 13.4626 5.35701 -1.64478
thorax 5.24328 2.61921 -1.6291
lowerneck 7.57307 -4.31871 -5.34839
upperneck 0.971088 -6.11894 3.33577
head -0.704443 -3.10854 2.12977
rclavicle 1.19271e-015 -7.95139e-016
rhumerus 19.1277 10.8943 -82.4287
rradius 136.816
rwrist -10.1435
rhand 34.4693 -5.82861
rfingers 7.12502
rthumb 57.6739 -21.8391
lclavicle 1.19271e-015 -7.95139e-016
lhumerus 17.3833 -1.92908 72.0304
lradius 126.958
lwrist -17.9769
lhand 25.3691 45.3896
lfingers 7.12502
lthumb 49.4998 66.8711
rfemur -34.4702 4.20743 7.82212
rtibia 54.4848
rfoot -20.4086 -10.1545
rtoes -18.1667
lfemur -26.2063 19.0776 -30.7552
ltibia 50.1804
lfoot -28.9888 13.3682
ltoes -9.92532
2623
root 1.11669 16.8476 -1.17202 0.0244402 -19.633 7.33675
lowerback 16.5615 4.29934 -1.322
upperback 13.4432 5.31786 -1.53532
thorax 5.23696 2.59331 -1.51102
lowerneck 8.02424 -4.30908 -5.25282
upperneck 0.357376 -6.11589 3.2693
head -0.983309 -3.10375 2.12174
rclavicle -4.77083e-015 3.97569e-015
rhumerus 19.2164 11.1546 -82.5014
rradius 136.7
rwrist -10.259
rhand 34.4441 -6.10155
rfingers 7.12502
rthumb 57.6518 -22.1313
lclavicle -4.77083e-015 3.97569e-015
lhumerus 17.5729 -0.933865 71.5771
lradius 126.542
lwrist -17.9928
lhand 24.5121 45.4364
lfingers 7.12502
lthumb 48.7129 67.3096
rfemur -34.4192 4.37544 7.72783
rtibia 54.2241
rfoot -20.2588 -10.1316
rtoes -18.4383
lfemur -26.055 19.0958 -30.8643
ltibia 49.8741
lfoot -29.049 13.6685
ltoes -10.4521
2624
root 1.13242 16.8623 -1.16571 0.0560134 -19.8767 7.31054
lowerback 16.4782 4.24374 -1.31126
upperback 13.4044 5.24456 -1.43143
thorax 5.22374 2.55062 -1.39452
lowerneck 8.1961 -4.30637 -4.99386
upperneck 0.0962631 -6.09799 3.11745
head -1.1091 -3.09096 2.03891
rclavicle -3.18055e-015 3.18055e-015
rhumerus 19.3733 11.3047 -82.6873
rradius 136.481
rwrist -10.5894
rhand 34.5312 -6.2753
rfingers 7.12502
rthumb 57.728 -22.2383
lclavicle -3.18055e-015 3.18055e-015
lhumerus 17.8898 0.0249992 71.0355
lradius 126.071
lwrist -17.976
lhand 23.7324 45.305
lfingers 7.12502
lthumb 47.9949 67.5202
rfemur -34.3293 4.52523 7.71143
rtibia 53.908
rfoot -20.0933 -10.0929
rtoes -18.6647
lfemur -25.9123 19.0907 -30.8987
ltibia 49.5754
lfoot -29.1067 13.8902
ltoes -10.368
2625
root 1.14883 16.8785 -1.15854 0.083401 -20.1423 7.28962
lowerback 16.3618 4.27521 -1.22911
upperback 13.3884 5.2932 -1.25203
thorax 5.25473 2.57107 -1.24844
lowerneck 8.00683 -4.42327 -4.97667
upperneck 0.330946 -6.24553 3.06021
head -0.99615 -3.16409 2.00807
rclavicle 1.59028e-015 -1.90833e-014
rhumerus 19.3868 11.3703 -82.6343
rradius 136.331
rwrist -10.6402
rhand 34.1062 -6.26943
rfingers 7.12502
rthumb 57.3559 -22.5551
lclavicle 1.59028e-015 -1.90833e-014
lhumerus 18.45 0.674143 70.7579
lradius 125.615
lwrist -18.025
lhand 23.2925 44.9733
lfingers 7.12502
lthumb 47.589 67.3756
rfemur -34.2288 4.68336 7.68269
rtibia 53.5427
rfoot -19.9205 -10.017
rtoes -19.0045
lfemur -25.7626 19.1091 -30.9406
ltibia 49.2681
lfoot -29.0712 13.9651
ltoes -9.83556
2626
root 1.16624 16.8981 -1.14842 0.0912648 -20.4467 7.21748
lowerback 16.2851 4.32287 -1.04116
upperback 13.3652 5.37226 -1.04937
thorax 5.26468 2.61373 -1.14273
lowerneck 7.79994 -4.52892 -5.13147
upperneck 0.604234 -6.39172 3.05463
head -0.861988 -3.23788 2.02229
rclavicle 9.54166e-015 1.11319e-014
rhumerus 19.2656 11.5349 -82.528
rradius 136.224
rwrist -10.4378
rhand 33.3889 -6.28734
rfingers 7.12502
rthumb 56.7252 -23.1
lclavicle 9.54166e-015 1.11319e-014
lhumerus 19.1154 1.12405 70.507
lradius 125.126
lwrist -17.7315
lhand 22.5289 44.7137
lfingers 7.12502
lthumb 46.8832 67.4312
rfemur -34.0757 4.90347 7.70532
rtibia 53.1468
rfoot -19.8215 -9.94389
rtoes -19.115
lfemur -25.5613 19.1523 -30.9208
ltibia 48.9386
lfoot -28.9845 14.1524
ltoes -10.0373
2627
root 1.18257 16.9195 -1.1399 0.158314 -20.6847 7.08302
lowerback 16.2637 4.25591 -0.859897
upperback 13.2629 5.30056 -0.926078
thorax 5.16198 2.58435 -1.10756
lowerneck 7.83599 -4.5602 -4.86939
upperneck 0.576009 -6.41764 2.71724
head -0.893472 -3.24444 1.86993
rclavicle -1.43125e-014 5.48646e-014
rhumerus 19.1015 11.696 -82.7615
rradius 136.199
rwrist -10.0415
rhand 33.3417 -6.57196
rfingers 7.12502
rthumb 56.6836 -23.4186
lclavicle -1.43125e-014 5.48646e-014
lhumerus 19.662 1.59643 70.029
lradius 124.661
lwrist -17.3606
lhand 21.6305 44.5196
lfingers 7.12502
lthumb 46.0508 67.5929
rfemur -33.9269 5.05388 7.80315
rtibia 52.735
rfoot -19.6422 -9.93747
rtoes -19.359
lfemur -25.418 19.1564 -30.845
ltibia 48.6
lfoot -28.8496 14.4199
ltoes -10.3701
2628
root 1.19906 16.939 -1.1352 0.242073 -20.8738 7.08316
lowerback 16.1644 4.19463 -0.8558
upperback 13.173 5.21942 -0.791341
thorax 5.09668 2.53654 -0.955758
lowerneck 7.94071 -4.59615 -4.63264
upperneck 0.449401 -6.45564 2.34014
head -0.968277 -3.25556 1.7155
rclavicle -2.3059e-014 1.98785e-014
rhumerus 19.0738 11.6046 -82.97
rradius 136.274
rwrist -9.42731
rhand 33.6986 -7.16809
rfingers 7.12502
rthumb 56.9979 -23.7559
lclavicle -2.3059e-014 1.98785e-014
lhumerus 20.2703 1.92446 69.7104
lradius 124.234
lwrist -17.353
lhand 21.0893 44.2377
lfingers 7.12502
lthumb 45.5485 67.5179
rfemur -33.8564 5.10388 7.74876
rtibia 52.3282
rfoot -19.4219 -9.848
rtoes -19.4891
lfemur -25.3361 19.0696 -30.9307
ltibia 48.2417
lfoot -28.8121 14.6836
ltoes -10.6879
2629
root 1.21632 16.9589 -1.13156 0.314984 -21.0717 7.09582
lowerback 16.0699 4.11827 -0.993978
upperback 13.0793 5.10036 -0.559268
thorax 5.00231 2.45449 -0.619902
lowerneck 7.88878 -4.58153 -4.70653
upperneck 0.527774 -6.44727 2.01797
head -0.94182 -3.24604 1.62115
rclavicle 6.44062e-014 -5.00937e-014
rhumerus 19.1073 11.6738 -82.937
rradius 136.289
rwrist -9.11275
rhand 33.7799 -7.61536
rfingers 7.12502
rthumb 57.0694 -24.1434
lclavicle 6.44062e-014 -5.00937e-014
lhumerus 20.8881 2.27305 69.56
lradius 123.825
lwrist -17.58
lhand 20.8204 43.8318
lfingers 7.12502
lthumb 45.2985 67.2128
rfemur -33.7834 5.14903 7.67424
rtibia 51.8959
rfoot -19.2282 -9.66518
rtoes -19.3847
lfemur -25.2486 18.9741 -31.0329
ltibia 47.8899
lfoot -28.7839 14.9642
ltoes -10.9657
2630
root 1.23352 16.9821 -1.12505 0.32927 -21.2654 7.04935
lowerback 16.1661 3.98508 -1.04743
upperback 12.8986 4.91212 -0.368149
thorax 4.72474 2.34748 -0.382639
lowerneck 7.82665 -4.49241 -4.82126
upperneck 0.756879 -6.34141 1.73885
head -0.866771 -3.19085 1.54159
rclavicle -5.1684e-014 3.18055e-015
rhumerus 18.9135 11.9274 -83.0223
rradius 136.184
rwrist -9.01012
rhand 33.7083 -7.36171
rfingers 7.12502
rthumb 57.0064 -23.9424
lclavicle -5.1684e-014 3.18055e-015
lhumerus 21.4334 2.62193 69.2416
lradius 123.491
lwrist -17.7966
lhand 20.7699 43.3919
lfingers 7.12502
lthumb 45.2516 66.7917
rfemur -33.5975 5.21197 7.67924
rtibia 51.4421
rfoot -19.0377 -9.58149
rtoes -19.5967
lfemur -25.0337 18.8357 -31.0037
ltibia 47.5168
lfoot -28.8559 14.8996
ltoes -9.87247
2631
root 1.24983 17.0059 -1.11898 0.411028 -21.4406 6.88848
lowerback 16.2391 3.89802 -0.836838
upperback 12.7257 4.81685 -0.205906
thorax 4.49515 2.3077 -0.329561
lowerneck 7.83013 -4.44402 -4.93144
upperneck 0.876552 -6.28853 1.6454
head -0.830738 -3.16462 1.52675
rclavicle 3.18055e-015 2.38542e-015
rhumerus 18.6609 11.9537 -83.1371
rradius 136.086
rwrist -8.83053
rhand 33.6125 -6.8704
rfingers 7.12502
rthumb 56.9221 -23.5211
lclavicle 3.18055e-015 2.38542e-015
lhumerus 22.1427 2.56201 68.8664
lradius 123.242
lwrist -17.8459
lhand 20.2817 43.0266
lfingers 7.12502
lthumb 44.7974 66.6056
rfemur -33.4086 5.27952 7.80624
rtibia 50.9561
rfoot -18.8277 -9.55361
rtoes -19.754
lfemur -24.8703 18.6812 -30.8452
ltibia 47.1527
lfoot -28.952 14.6685
ltoes -8.33532
2632
root 1.26569 17.0284 -1.11299 0.494033 -21.5459 6.80843
lowerback 16.2229 3.83953 -0.688868
upperback 12.6098 4.75525 -0.0381056
thorax 4.37035 2.27979 -0.231765
lowerneck 7.85723 -4.43534 -5.06899
upperneck 0.851933 -6.29132 1.62392
head -0.839796 -3.16578 1.54505
rclavicle 0 -1.43125e-014
rhumerus 18.4921 11.8629 -83.1685
rradius 136.048
rwrist -8.56999
rhand 33.6507 -6.7021
rfingers 7.12502
rthumb 56.9558 -23.3249
lclavicle 0 -1.43125e-014
lhumerus 22.9923 2.24593 68.5591
lradius 123.052
lwrist -18.1021
lhand 19.8808 42.676
lfingers 7.12502
lthumb 44.424 66.3989
rfemur -33.2184 5.2788 7.83645
rtibia 50.4702
rfoot -18.6482 -9.46299
rtoes -19.6537
lfemur -24.7234 18.5247 -30.8046
ltibia 46.7841
lfoot -28.9186 14.5127
ltoes -7.16625
